<svg id="Layer_1" data-name="Layer 1" xmlns="http://www.w3.org/2000/svg" viewBox="0 0 1870.3 447.5"><defs><style>.cls-1{font-size:380px;font-family:Nexa-Trial-Black, Nexa-Trial;font-weight:800;letter-spacing:-0.09em;}.cls-1,.cls-4{fill:#fff;}.cls-2{letter-spacing:-0.07em;}.cls-3{letter-spacing:-0.09em;}.cls-5,.cls-6{fill:none;stroke-miterlimit:10;}.cls-5{stroke:#2c88c3;stroke-width:15px;}.cls-6{stroke:#186a9e;stroke-width:17px;}</style></defs><text class="cls-1" transform="translate(347 342.3)">P<tspan class="cls-2" x="233.7" y="0">en</tspan><tspan x="637.6" y="0">P</tspan><tspan class="cls-2" x="871.3" y="0">a</tspan><tspan class="cls-3" x="1086" y="0">c</tspan><tspan class="cls-2" x="1250.2" y="0">e</tspan></text><circle class="cls-4" cx="154.3" cy="211.8" r="154.3"/><path class="cls-5" d="M254.8,146.7H150.1A11.3,11.3,0,0,0,138.8,158V268.9a11.3,11.3,0,0,0,11.3,11.4H261a11.4,11.4,0,0,0,11.3-11.4V164.4" transform="translate(-51 0)"/><line class="cls-5" x1="87.8" y1="184.8" x2="165.6" y2="184.9"/><line class="cls-5" x1="201" y1="184.9" x2="221.4" y2="184.9"/><path class="cls-6" d="M278.6,128h0A12.4,12.4,0,0,1,291,140.5v12.4a0,0,0,0,1,0,0H266.2a0,0,0,0,1,0,0V140.5A12.4,12.4,0,0,1,278.6,128Z" transform="translate(130 -155.9) rotate(45)"/><path class="cls-6" d="M278.6,158l-53.9,54.3-19.1,2.6a1.5,1.5,0,0,1-1.7-1.7l3.1-18.6,54.1-54.1" transform="translate(-51 0)"/></svg>